<?xml version="1.0" encoding="utf-8"?>
<svg version="1.1" xmlns:xlink="http://www.w3.org/1999/xlink" width="12px" height="12px" viewBox="179 51  12 12" xmlns="http://www.w3.org/2000/svg">
  <path d="M 185 51  C 188.36 51  191 53.64  191 57  C 191 60.36  188.36 63  185 63  C 181.64 63  179 60.36  179 57  C 179 53.64  181.64 51  185 51  Z " fill-rule="nonzero" fill="#ffffff" stroke="none" />
  <path d="M 185 51.5  C 188.08 51.5  190.5 53.92  190.5 57  C 190.5 60.08  188.08 62.5  185 62.5  C 181.92 62.5  179.5 60.08  179.5 57  C 179.5 53.92  181.92 51.5  185 51.5  Z " stroke-width="1" stroke="#797979" fill="none" />
  <path d="M 185 60  C 183.32 60  182 58.68  182 57  C 182 55.32  183.32 54  185 54  C 186.68 54  188 55.32  188 57  C 188 58.68  186.68 60  185 60  " fill-rule="nonzero" fill="#797979" stroke="none" />
</svg>