<?xml version="1.0" encoding="utf-8"?>
<svg version="1.1" xmlns:xlink="http://www.w3.org/1999/xlink" width="12px" height="12px" viewBox="251 51  12 12" xmlns="http://www.w3.org/2000/svg">
  <path d="M 257 51  C 260.36 51  263 53.64  263 57  C 263 60.36  260.36 63  257 63  C 253.64 63  251 60.36  251 57  C 251 53.64  253.64 51  257 51  Z " fill-rule="nonzero" fill="#ffffff" stroke="none" />
  <path d="M 257 51.5  C 260.08 51.5  262.5 53.92  262.5 57  C 262.5 60.08  260.08 62.5  257 62.5  C 253.92 62.5  251.5 60.08  251.5 57  C 251.5 53.92  253.92 51.5  257 51.5  Z " stroke-width="1" stroke="#797979" fill="none" />
  <path d="M 257 60  C 255.32 60  254 58.68  254 57  C 254 55.32  255.32 54  257 54  C 258.68 54  260 55.32  260 57  C 260 58.68  258.68 60  257 60  " fill-rule="nonzero" fill="#797979" stroke="none" />
</svg>