<?xml version="1.0" encoding="utf-8"?>
<svg version="1.1" xmlns:xlink="http://www.w3.org/1999/xlink" width="12px" height="12px" xmlns="http://www.w3.org/2000/svg">
  <g transform="matrix(1 0 0 1 -133 -182 )">
    <path d="M 139 182  C 142.36 182  145 184.64  145 188  C 145 191.36  142.36 194  139 194  C 135.64 194  133 191.36  133 188  C 133 184.64  135.64 182  139 182  Z " fill-rule="nonzero" fill="#ffffff" stroke="none" />
    <path d="M 139 182.5  C 142.08 182.5  144.5 184.92  144.5 188  C 144.5 191.08  142.08 193.5  139 193.5  C 135.92 193.5  133.5 191.08  133.5 188  C 133.5 184.92  135.92 182.5  139 182.5  Z " stroke-width="1" stroke="#909399" fill="none" />
  </g>
</svg>