<?xml version="1.0" encoding="utf-8"?>
<svg version="1.1" xmlns:xlink="http://www.w3.org/1999/xlink" width="18px" height="12px" xmlns="http://www.w3.org/2000/svg">
  <g transform="matrix(1 0 0 1 -625 -487 )">
    <path d="M 8.35799372844826 7.39349045833332  L 9.64200627155174 7.39349045833332  C 10.0015297758621 7.39349045833332  10.2840125431034 7.19121884722222  10.2840125431034 6.93378226388889  C 10.2840125431034 6.67634568055556  10.0015297758621 6.47405611111112  9.64200627155174 6.47405611111112  L 8.35799372844826 6.47405611111112  C 7.99847022413792 6.47405611111112  7.71598745689656 6.67634566666667  7.71598745689656 6.93378226388889  C 7.71598745689656 7.1912188611111  7.99847022413792 7.39349045833332  8.35799372844826 7.39349045833332  Z M 8.35799372844826 9.2323232361111  L 9.64200627155174 9.2323232361111  C 10.0015297758621 9.2323232361111  10.2840125431034 9.03003368055555  10.2840125431034 8.77259708333333  C 10.2840125431034 8.51516048611112  10.0015297758621 8.31288888888888  9.64200627155174 8.31288888888888  L 8.35799372844826 8.31288888888888  C 7.99847022413792 8.31288888888888  7.71598745689656 8.51516050000001  7.71598745689656 8.77259708333333  C 7.71598745689656 9.03003366666666  7.99847022413792 9.2323232361111  8.35799372844826 9.2323232361111  Z M 15.4200376163793 0.957575763888893  L 12.8520376099138 0.957575763888893  L 12.8520376099138 0.497867569444439  C 12.8520376099138 0.240430986111111  12.5695297823276 0.0381593750000039  12.2100062586207 0.0381593750000039  C 11.8504827349138 0.0381593750000039  11.567999987069 0.240430986111111  11.567999987069 0.497867569444439  L 11.567999987069 0.957575763888893  L 6.43197491379311 0.957575763888893  L 6.43197491379311 0.497867569444439  C 6.43197491379311 0.240430986111111  6.14949214655172 0.0381593750000039  5.78996864224138 0.0381593750000039  C 5.43044513793103 0.0381593750000039  5.14796237068964 0.240430986111111  5.14796237068964 0.497867569444439  L 5.14796237068964 0.957575763888893  L 2.57993730387932 0.957575763888893  C 1.16752350646553 0.957575763888893  0.0119122176724034 1.7850505  0.0119122176724034 2.79640852777778  L 0.0119122176724034 10.151739625  C 0.0119122176724034 11.1630976388889  1.16752350646553 11.9905723888889  2.57993730387932 12  L 15.4200626961207 12  C 16.8324764935345 11.9905723888889  17.9880877823276 11.1630976388889  17.9880877823276 10.1517575694444  L 17.9880877823276 2.79640852777778  C 17.9880877823276 1.7850505  16.8324764935345 0.957575763888893  15.4200376163793 0.957575763888893  Z M 16.7040752392242 10.151739625  C 16.7040752392242 10.6574006805556  16.1262695948276 11.0711380555555  15.4200626961207 11  L 2.57993730387932 11  C 1.87373040517241 11.0711380555555  1.29592476077588 10.6574006805556  1.29592476077588 10.151739625  L 1.29592476077588 4.63524130555556  L 16.7040752392242 4.63524130555556  L 16.7040752392242 10.151739625  Z M 16.7040752392242 3.71582491666667  L 1.29592476077588 3.71582491666667  L 1.29592476077588 2.79640852777778  C 1.29592476077588 2.29072951388888  1.87373040517241 1.8769921388889  2.57993730387932 1.8769921388889  L 5.14796239008621 1.8769921388889  L 5.14796239008621 2.33670033333333  C 5.14796239008621 2.59413691666666  5.4304451573276 2.79640852777778  5.78996866163794 2.79640852777778  C 6.14949216594829 2.79640852777778  6.43197491379311 2.59413693055556  6.43197491379311 2.33670033333333  L 6.43197491379311 1.8769921388889  L 11.5680250668103 1.8769921388889  L 11.5680250862069 2.33670033333333  C 11.5680250862069 2.59413691666666  11.8505078534483 2.79640852777778  12.2100313577586 2.79640852777778  C 12.569554862069 2.79640852777778  12.8520376099138 2.59413693055556  12.8520376099138 2.33670033333333  L 12.8520376099138 1.8769921388889  L 15.4200376163793 1.8769921388889  C 16.1262445150862 1.8769921388889  16.7040501594828 2.29072951388888  16.7040501594828 2.79640852777778  L 16.7040501594828 3.71582491666667  Z M 4.50595611853447 9.2323232361111  L 5.78996866163794 9.2323232361111  C 6.14949216594829 9.2323232361111  6.43197493318965 9.03003368055555  6.43197493318965 8.77259708333333  C 6.43197493318965 8.51516048611112  6.14949216594829 8.31288888888888  5.78996866163794 8.31288888888888  L 4.50595611853447 8.31288888888888  C 4.14643261422412 8.31288888888888  3.86394984698276 8.51516050000001  3.86394984698276 8.77259708333333  C 3.86394984698276 9.03003366666666  4.14643259482759 9.2323232361111  4.50595611853447 9.2323232361111  Z M 12.2100062780172 7.39349045833332  L 13.4940188211207 7.39349045833332  C 13.853542325431 7.39349045833332  14.1360501724138 7.19121884722222  14.1360501724138 6.93378226388889  C 14.1360501724138 6.67634568055556  13.8535423448276 6.47405611111112  13.4940188211207 6.47405611111112  L 12.2100062780172 6.47405611111112  C 11.8504827737069 6.47405611111112  11.5680000064655 6.67634566666667  11.5680000064655 6.93378226388889  C 11.5680000064655 7.1912188611111  11.8504827543103 7.39349045833332  12.2100062780172 7.39349045833332  Z M 4.50595611853447 7.39349045833332  L 5.78996866163794 7.39349045833332  C 6.14949216594829 7.39349045833332  6.43197493318965 7.19121884722222  6.43197493318965 6.93378226388889  C 6.43197493318965 6.67634568055556  6.14949216594829 6.47405611111112  5.78996866163794 6.47405611111112  L 4.50595611853447 6.47405611111112  C 4.14643261422412 6.47405611111112  3.86394984698276 6.67634566666667  3.86394984698276 6.93378226388889  C 3.86394984698276 7.1912188611111  4.14643259482759 7.39349045833332  4.50595611853447 7.39349045833332  Z M 12.2100062780172 9.2323232361111  L 13.4940188211207 9.2323232361111  C 13.853542325431 9.2323232361111  14.1360501724138 9.03003368055555  14.1360501724138 8.77259708333333  C 14.1360501724138 8.51516048611112  13.8535423448276 8.31288888888888  13.4940188211207 8.31288888888888  L 12.2100062780172 8.31288888888888  C 11.8504827737069 8.31288888888888  11.5680000064655 8.51516050000001  11.5680000064655 8.77259708333333  C 11.5680000064655 9.03003366666666  11.8504827543103 9.2323232361111  12.2100062780172 9.2323232361111  Z " fill-rule="nonzero" fill="#d7d7d7" stroke="none" transform="matrix(1 0 0 1 625 487 )" />
  </g>
</svg>