<?xml version="1.0" encoding="utf-8"?>
<svg version="1.1" xmlns:xlink="http://www.w3.org/1999/xlink" width="12px" height="12px" viewBox="99 51  12 12" xmlns="http://www.w3.org/2000/svg">
  <path d="M 105 51  C 108.36 51  111 53.64  111 57  C 111 60.36  108.36 63  105 63  C 101.64 63  99 60.36  99 57  C 99 53.64  101.64 51  105 51  Z " fill-rule="nonzero" fill="#ffffff" stroke="none" />
  <path d="M 105 51.5  C 108.08 51.5  110.5 53.92  110.5 57  C 110.5 60.08  108.08 62.5  105 62.5  C 101.92 62.5  99.5 60.08  99.5 57  C 99.5 53.92  101.92 51.5  105 51.5  Z " stroke-width="1" stroke="#797979" fill="none" />
  <path d="M 105 60  C 103.32 60  102 58.68  102 57  C 102 55.32  103.32 54  105 54  C 106.68 54  108 55.32  108 57  C 108 58.68  106.68 60  105 60  " fill-rule="nonzero" fill="#797979" stroke="none" />
</svg>