<?xml version="1.0" encoding="utf-8"?>
<svg version="1.1" xmlns:xlink="http://www.w3.org/1999/xlink" width="12px" height="12px" viewBox="360 166  12 12" xmlns="http://www.w3.org/2000/svg">
  <path d="M 366 166  C 369.36 166  372 168.64  372 172  C 372 175.36  369.36 178  366 178  C 362.64 178  360 175.36  360 172  C 360 168.64  362.64 166  366 166  Z " fill-rule="nonzero" fill="#ffffff" stroke="none" />
  <path d="M 366 166.5  C 369.08 166.5  371.5 168.92  371.5 172  C 371.5 175.08  369.08 177.5  366 177.5  C 362.92 177.5  360.5 175.08  360.5 172  C 360.5 168.92  362.92 166.5  366 166.5  Z " stroke-width="1" stroke="#797979" fill="none" />
  <path d="M 366 175  C 364.32 175  363 173.68  363 172  C 363 170.32  364.32 169  366 169  C 367.68 169  369 170.32  369 172  C 369 173.68  367.68 175  366 175  " fill-rule="nonzero" fill="#797979" stroke="none" />
</svg>