<?xml version="1.0" encoding="utf-8"?>
<svg version="1.1" xmlns:xlink="http://www.w3.org/1999/xlink" width="24px" height="12px" xmlns="http://www.w3.org/2000/svg">
  <g transform="matrix(1 0 0 1 -952 -143 )">
    <path d="M 11.143991637931 7.39349045833332  L 12.856008362069 7.39349045833332  C 13.3353730344828 7.39349045833332  13.7120167241379 7.19121884722222  13.7120167241379 6.93378226388889  C 13.7120167241379 6.67634568055556  13.3353730344828 6.47405611111112  12.856008362069 6.47405611111112  L 11.143991637931 6.47405611111112  C 10.6646269655172 6.47405611111112  10.2879832758621 6.67634566666667  10.2879832758621 6.93378226388889  C 10.2879832758621 7.1912188611111  10.6646269655172 7.39349045833332  11.143991637931 7.39349045833332  Z M 11.143991637931 9.2323232361111  L 12.856008362069 9.2323232361111  C 13.3353730344828 9.2323232361111  13.7120167241379 9.03003368055555  13.7120167241379 8.77259708333333  C 13.7120167241379 8.51516048611112  13.3353730344828 8.31288888888888  12.856008362069 8.31288888888888  L 11.143991637931 8.31288888888888  C 10.6646269655172 8.31288888888888  10.2879832758621 8.51516050000001  10.2879832758621 8.77259708333333  C 10.2879832758621 9.03003366666666  10.6646269655172 9.2323232361111  11.143991637931 9.2323232361111  Z M 20.5600501551724 0.957575763888893  L 17.1360501465517 0.957575763888893  L 17.1360501465517 0.497867569444439  C 17.1360501465517 0.240430986111111  16.7593730431034 0.0381593750000039  16.2800083448276 0.0381593750000039  C 15.8006436465517 0.0381593750000039  15.4239999827586 0.240430986111111  15.4239999827586 0.497867569444439  L 15.4239999827586 0.957575763888893  L 8.57596655172415 0.957575763888893  L 8.57596655172415 0.497867569444439  C 8.57596655172415 0.240430986111111  8.19932286206896 0.0381593750000039  7.71995818965517 0.0381593750000039  C 7.24059351724137 0.0381593750000039  6.86394982758619 0.240430986111111  6.86394982758619 0.497867569444439  L 6.86394982758619 0.957575763888893  L 3.43991640517243 0.957575763888893  C 1.5566980086207 0.957575763888893  0.0158829568965378 1.7850505  0.0158829568965378 2.79640852777778  L 0.0158829568965378 10.151739625  C 0.0158829568965378 11.1630976388889  1.5566980086207 11.9905723888889  3.43991640517243 12  L 20.5600835948276 12  C 22.4433019913793 11.9905723888889  23.9841170431034 11.1630976388889  23.9841170431034 10.1517575694444  L 23.9841170431034 2.79640852777778  C 23.9841170431034 1.7850505  22.4433019913793 0.957575763888893  20.5600501551724 0.957575763888893  Z M 22.2721003189655 10.151739625  C 22.2721003189655 10.6574006805556  21.5016927931035 11.0711380555555  20.5600835948276 11  L 3.43991640517243 11  C 2.49830720689655 11.0711380555555  1.7278996810345 10.6574006805556  1.7278996810345 10.151739625  L 1.7278996810345 4.63524130555556  L 22.2721003189655 4.63524130555556  L 22.2721003189655 10.151739625  Z M 22.2721003189655 3.71582491666667  L 1.7278996810345 3.71582491666667  L 1.7278996810345 2.79640852777778  C 1.7278996810345 2.29072951388888  2.49830720689655 1.8769921388889  3.43991640517243 1.8769921388889  L 6.86394985344828 1.8769921388889  L 6.86394985344828 2.33670033333333  C 6.86394985344828 2.59413691666666  7.24059354310346 2.79640852777778  7.71995821551726 2.79640852777778  C 8.19932288793105 2.79640852777778  8.57596655172415 2.59413693055556  8.57596655172415 2.33670033333333  L 8.57596655172415 1.8769921388889  L 15.4240334224138 1.8769921388889  L 15.4240334482758 2.33670033333333  C 15.4240334482758 2.59413691666666  15.800677137931 2.79640852777778  16.2800418103448 2.79640852777778  C 16.7594064827586 2.79640852777778  17.1360501465517 2.59413693055556  17.1360501465517 2.33670033333333  L 17.1360501465517 1.8769921388889  L 20.5600501551724 1.8769921388889  C 21.5016593534483 1.8769921388889  22.2720668793104 2.29072951388888  22.2720668793104 2.79640852777778  L 22.2720668793104 3.71582491666667  Z M 6.00794149137929 9.2323232361111  L 7.71995821551726 9.2323232361111  C 8.19932288793105 9.2323232361111  8.5759665775862 9.03003368055555  8.5759665775862 8.77259708333333  C 8.5759665775862 8.51516048611112  8.19932288793105 8.31288888888888  7.71995821551726 8.31288888888888  L 6.00794149137929 8.31288888888888  C 5.5285768189655 8.31288888888888  5.15193312931035 8.51516050000001  5.15193312931035 8.77259708333333  C 5.15193312931035 9.03003366666666  5.52857679310345 9.2323232361111  6.00794149137929 9.2323232361111  Z M 16.2800083706896 7.39349045833332  L 17.9920250948276 7.39349045833332  C 18.4713897672414 7.39349045833332  18.8480668965517 7.19121884722222  18.8480668965517 6.93378226388889  C 18.8480668965517 6.67634568055556  18.4713897931035 6.47405611111112  17.9920250948276 6.47405611111112  L 16.2800083706896 6.47405611111112  C 15.8006436982758 6.47405611111112  15.4240000086207 6.67634566666667  15.4240000086207 6.93378226388889  C 15.4240000086207 7.1912188611111  15.8006436724138 7.39349045833332  16.2800083706896 7.39349045833332  Z M 6.00794149137929 7.39349045833332  L 7.71995821551726 7.39349045833332  C 8.19932288793105 7.39349045833332  8.5759665775862 7.19121884722222  8.5759665775862 6.93378226388889  C 8.5759665775862 6.67634568055556  8.19932288793105 6.47405611111112  7.71995821551726 6.47405611111112  L 6.00794149137929 6.47405611111112  C 5.5285768189655 6.47405611111112  5.15193312931035 6.67634566666667  5.15193312931035 6.93378226388889  C 5.15193312931035 7.1912188611111  5.52857679310345 7.39349045833332  6.00794149137929 7.39349045833332  Z M 16.2800083706896 9.2323232361111  L 17.9920250948276 9.2323232361111  C 18.4713897672414 9.2323232361111  18.8480668965517 9.03003368055555  18.8480668965517 8.77259708333333  C 18.8480668965517 8.51516048611112  18.4713897931035 8.31288888888888  17.9920250948276 8.31288888888888  L 16.2800083706896 8.31288888888888  C 15.8006436982758 8.31288888888888  15.4240000086207 8.51516050000001  15.4240000086207 8.77259708333333  C 15.4240000086207 9.03003366666666  15.8006436724138 9.2323232361111  16.2800083706896 9.2323232361111  Z " fill-rule="nonzero" fill="#d7d7d7" stroke="none" transform="matrix(1 0 0 1 952 143 )" />
  </g>
</svg>