<?xml version="1.0" encoding="utf-8"?>
<svg version="1.1" xmlns:xlink="http://www.w3.org/1999/xlink" width="25px" height="12px" xmlns="http://www.w3.org/2000/svg">
  <g transform="matrix(1 0 0 1 -1113 -143 )">
    <path d="M 11.6083246228448 7.39349045833332  L 13.3916753771552 7.39349045833332  C 13.8910135775862 7.39349045833332  14.2833507543103 7.19121884722222  14.2833507543103 6.93378226388889  C 14.2833507543103 6.67634568055556  13.8910135775862 6.47405611111112  13.3916753771552 6.47405611111112  L 11.6083246228448 6.47405611111112  C 11.1089864224138 6.47405611111112  10.7166492456897 6.67634566666667  10.7166492456897 6.93378226388889  C 10.7166492456897 7.1912188611111  11.1089864224138 7.39349045833332  11.6083246228448 7.39349045833332  Z M 11.6083246228448 9.2323232361111  L 13.3916753771552 9.2323232361111  C 13.8910135775862 9.2323232361111  14.2833507543103 9.03003368055555  14.2833507543103 8.77259708333333  C 14.2833507543103 8.51516048611112  13.8910135775862 8.31288888888888  13.3916753771552 8.31288888888888  L 11.6083246228448 8.31288888888888  C 11.1089864224138 8.31288888888888  10.7166492456897 8.51516050000001  10.7166492456897 8.77259708333333  C 10.7166492456897 9.03003366666666  11.1089864224138 9.2323232361111  11.6083246228448 9.2323232361111  Z M 21.4167189116379 0.957575763888893  L 17.8500522359914 0.957575763888893  L 17.8500522359914 0.497867569444439  C 17.8500522359914 0.240430986111111  17.4576802532327 0.0381593750000039  16.9583420258621 0.0381593750000039  C 16.4590037984914 0.0381593750000039  16.0666666487069 0.240430986111111  16.0666666487069 0.497867569444439  L 16.0666666487069 0.957575763888893  L 8.93329849137932 0.957575763888893  L 8.93329849137932 0.497867569444439  C 8.93329849137932 0.240430986111111  8.54096131465517 0.0381593750000039  8.04162311422413 0.0381593750000039  C 7.5422849137931 0.0381593750000039  7.14994773706895 0.240430986111111  7.14994773706895 0.497867569444439  L 7.14994773706895 0.957575763888893  L 3.58324625538794 0.957575763888893  C 1.62156042564657 0.957575763888893  0.0165447467672269 1.7850505  0.0165447467672269 2.79640852777778  L 0.0165447467672269 10.151739625  C 0.0165447467672269 11.1630976388889  1.62156042564657 11.9905723888889  3.58324625538794 12  L 21.4167537446121 12  C 23.3784395743535 11.9905723888889  24.9834552532327 11.1630976388889  24.9834552532327 10.1517575694444  L 24.9834552532327 2.79640852777778  C 24.9834552532327 1.7850505  23.3784395743535 0.957575763888893  21.4167189116379 0.957575763888893  Z M 23.2001044989224 10.151739625  C 23.2001044989224 10.6574006805556  22.3975966594828 11.0711380555555  21.4167537446121 11  L 3.58324625538794 11  C 2.60240334051724 11.0711380555555  1.7998955010776 10.6574006805556  1.7998955010776 10.151739625  L 1.7998955010776 4.63524130555556  L 23.2001044989224 4.63524130555556  L 23.2001044989224 10.151739625  Z M 23.2001044989224 3.71582491666667  L 1.7998955010776 3.71582491666667  L 1.7998955010776 2.79640852777778  C 1.7998955010776 2.29072951388888  2.60240334051724 1.8769921388889  3.58324625538794 1.8769921388889  L 7.14994776400862 1.8769921388889  L 7.14994776400862 2.33670033333333  C 7.14994776400862 2.59413691666666  7.54228494073277 2.79640852777778  8.04162314116381 2.79640852777778  C 8.54096134159485 2.79640852777778  8.93329849137932 2.59413693055556  8.93329849137932 2.33670033333333  L 8.93329849137932 1.8769921388889  L 16.066701481681 1.8769921388889  L 16.0667015086207 2.33670033333333  C 16.0667015086207 2.59413691666666  16.4590386853448 2.79640852777778  16.9583768857759 2.79640852777778  C 17.4577150862069 2.79640852777778  17.8500522359914 2.59413693055556  17.8500522359914 2.33670033333333  L 17.8500522359914 1.8769921388889  L 21.4167189116379 1.8769921388889  C 22.3975618265087 1.8769921388889  23.2000696659483 2.29072951388888  23.2000696659483 2.79640852777778  L 23.2000696659483 3.71582491666667  Z M 6.25827238685343 9.2323232361111  L 8.04162314116381 9.2323232361111  C 8.54096134159485 9.2323232361111  8.93329851831896 9.03003368055555  8.93329851831896 8.77259708333333  C 8.93329851831896 8.51516048611112  8.54096134159485 8.31288888888888  8.04162314116381 8.31288888888888  L 6.25827238685343 8.31288888888888  C 5.7589341864224 8.31288888888888  5.36659700969828 8.51516050000001  5.36659700969828 8.77259708333333  C 5.36659700969828 9.03003366666666  5.75893415948276 9.2323232361111  6.25827238685343 9.2323232361111  Z M 16.9583420528017 7.39349045833332  L 18.7416928071121 7.39349045833332  C 19.2410310075431 7.39349045833332  19.6334030172414 7.19121884722222  19.6334030172414 6.93378226388889  C 19.6334030172414 6.67634568055556  19.2410310344828 6.47405611111112  18.7416928071121 6.47405611111112  L 16.9583420528017 6.47405611111112  C 16.4590038523707 6.47405611111112  16.0666666756466 6.67634566666667  16.0666666756466 6.93378226388889  C 16.0666666756466 7.1912188611111  16.459003825431 7.39349045833332  16.9583420528017 7.39349045833332  Z M 6.25827238685343 7.39349045833332  L 8.04162314116381 7.39349045833332  C 8.54096134159485 7.39349045833332  8.93329851831896 7.19121884722222  8.93329851831896 6.93378226388889  C 8.93329851831896 6.67634568055556  8.54096134159485 6.47405611111112  8.04162314116381 6.47405611111112  L 6.25827238685343 6.47405611111112  C 5.7589341864224 6.47405611111112  5.36659700969828 6.67634566666667  5.36659700969828 6.93378226388889  C 5.36659700969828 7.1912188611111  5.75893415948276 7.39349045833332  6.25827238685343 7.39349045833332  Z M 16.9583420528017 9.2323232361111  L 18.7416928071121 9.2323232361111  C 19.2410310075431 9.2323232361111  19.6334030172414 9.03003368055555  19.6334030172414 8.77259708333333  C 19.6334030172414 8.51516048611112  19.2410310344828 8.31288888888888  18.7416928071121 8.31288888888888  L 16.9583420528017 8.31288888888888  C 16.4590038523707 8.31288888888888  16.0666666756466 8.51516050000001  16.0666666756466 8.77259708333333  C 16.0666666756466 9.03003366666666  16.459003825431 9.2323232361111  16.9583420528017 9.2323232361111  Z " fill-rule="nonzero" fill="#d7d7d7" stroke="none" transform="matrix(1 0 0 1 1113 143 )" />
  </g>
</svg>