<?xml version="1.0" encoding="utf-8"?>
<svg version="1.1" xmlns:xlink="http://www.w3.org/1999/xlink" width="12px" height="12px" viewBox="497 166  12 12" xmlns="http://www.w3.org/2000/svg">
  <path d="M 503 166  C 506.36 166  509 168.64  509 172  C 509 175.36  506.36 178  503 178  C 499.64 178  497 175.36  497 172  C 497 168.64  499.64 166  503 166  Z " fill-rule="nonzero" fill="#ffffff" stroke="none" />
  <path d="M 503 166.5  C 506.08 166.5  508.5 168.92  508.5 172  C 508.5 175.08  506.08 177.5  503 177.5  C 499.92 177.5  497.5 175.08  497.5 172  C 497.5 168.92  499.92 166.5  503 166.5  Z " stroke-width="1" stroke="#797979" fill="none" />
  <path d="M 503 175  C 501.32 175  500 173.68  500 172  C 500 170.32  501.32 169  503 169  C 504.68 169  506 170.32  506 172  C 506 173.68  504.68 175  503 175  " fill-rule="nonzero" fill="#797979" stroke="none" />
</svg>