<?xml version="1.0" encoding="utf-8"?>
<svg version="1.1" xmlns:xlink="http://www.w3.org/1999/xlink" width="10px" height="10px" xmlns="http://www.w3.org/2000/svg">
  <g transform="matrix(1 0 0 1 -1134 -45 )">
    <path d="M 7.90270088175612 5.44073389222899  C 7.34061765842057 7.01104288289616  5.83748608396263 8.13812499999983  4.07624999999985 8.13812499999983  C 1.83373532659493 8.13537006485194  0.0165049351483049 6.3181396734052  0.0137499999998454 4.07562499999983  C 0.0137499999998454 1.83562499999994  1.83625000000006 0.0131249999998317  4.07624999999985 0.0131249999998317  C 6.31625000000008 0.0131249999998317  8.13874999999985 1.83562499999994  8.13874999999985 4.07562499999983  C 8.13874999999985 4.55425533235541  8.05549423387583 5.0138704588677  7.90270088175612 5.44073389222899  Z M 7.51374999999985 4.07562499999983  C 7.51374999999985 2.18000000000018  5.97187499999995 0.638124999999832  4.07624999999985 0.638124999999832  C 2.18062499999974 0.638124999999832  0.638749999999845 2.18000000000018  0.638749999999845 4.07562499999983  C 0.638749999999845 5.97125000000005  2.18062499999974 7.51312499999983  4.07624999999985 7.51312499999983  C 5.97125000000005 7.51312499999983  7.51374999999985 5.97125000000005  7.51374999999985 4.07562499999983  Z M 9.67375000000015 9.98687500000017  C 9.5925545538023 9.98687150022693  9.51454833034859 9.95526553037905  9.45624999999973 9.89874999999995  L 6.53625000000011 7.073125  C 6.4758476797906 7.01430012733351  6.44177820952905 6.93356388202847  6.44177820952905 6.84925014690236  C 6.44177820952905 6.67666116257988  6.58168922520713 6.53675014690236  6.75427820952905 6.53675014690236  C 6.83491766076122 6.53675014690236  6.91243553408322 6.56792252332991  6.97062500000015 6.62374999999997  L 9.89062499999977 9.44937499999992  C 9.95173496013194 9.50827601010599  9.98625810544786 9.58950005551685  9.98625810544786 9.67437500010487  C 9.98625810544786 9.84696398442736  9.84634708977001 9.98687500010487  9.67375810544786 9.98687500010487  Z " fill-rule="nonzero" fill="#ffffff" stroke="none" transform="matrix(1 0 0 1 1134 45 )" />
  </g>
</svg>