<?xml version="1.0" encoding="utf-8"?>
<svg version="1.1" xmlns:xlink="http://www.w3.org/1999/xlink" width="12px" height="12px" xmlns="http://www.w3.org/2000/svg">
  <g transform="matrix(1 0 0 1 -133 -182 )">
    <path d="M 139 186  C 140.12 186  141 186.88  141 188  C 141 189.12  140.12 190  139 190  C 137.88 190  137 189.12  137 188  C 137 186.88  137.88 186  139 186  Z " fill-rule="nonzero" fill="#ffffff" stroke="none" />
    <path d="M 139 184.5  C 140.96 184.5  142.5 186.04  142.5 188  C 142.5 189.96  140.96 191.5  139 191.5  C 137.04 191.5  135.5 189.96  135.5 188  C 135.5 186.04  137.04 184.5  139 184.5  Z " stroke-width="5" stroke="#409eff" fill="none" />
  </g>
</svg>