<?xml version="1.0" encoding="utf-8"?>
<svg version="1.1" xmlns:xlink="http://www.w3.org/1999/xlink" width="143px" height="124px" xmlns="http://www.w3.org/2000/svg">
  <defs>
    <mask fill="white" id="clip46">
      <path d="M 0 116.619047619048  L 0 7.38095238095238  C 0 3.24761904761905  1.43 0  3.25 0  L 139.75 0  C 141.57 0  143 3.24761904761905  143 7.38095238095238  L 143 116.619047619048  C 143 120.752380952381  141.57 124  139.75 124  L 72.0199999999995 124  L 3.25 124  C 1.43 124  0 120.752380952381  0 116.619047619048  Z " fill-rule="evenodd" />
    </mask>
  </defs>
  <g transform="matrix(1 0 0 1 0 -60 )">
    <path d="M 0 116.619047619048  L 0 7.38095238095238  C 0 3.24761904761905  1.43 0  3.25 0  L 139.75 0  C 141.57 0  143 3.24761904761905  143 7.38095238095238  L 143 116.619047619048  C 143 120.752380952381  141.57 124  139.75 124  L 72.0199999999995 124  L 3.25 124  C 1.43 124  0 120.752380952381  0 116.619047619048  Z " fill-rule="nonzero" fill="#ffffff" stroke="none" transform="matrix(1 0 0 1 0 60 )" />
    <path d="M 0 116.619047619048  L 0 7.38095238095238  C 0 3.24761904761905  1.43 0  3.25 0  L 139.75 0  C 141.57 0  143 3.24761904761905  143 7.38095238095238  L 143 116.619047619048  C 143 120.752380952381  141.57 124  139.75 124  L 72.0199999999995 124  L 3.25 124  C 1.43 124  0 120.752380952381  0 116.619047619048  Z " stroke-width="2" stroke="#e4e4e4" fill="none" transform="matrix(1 0 0 1 0 60 )" mask="url(#clip46)" />
  </g>
</svg>